<svg width="21" height="20" viewBox="0 0 21 20" fill="none" xmlns="http://www.w3.org/2000/svg">
<path d="M17.85 2H15.75V1C15.75 0.734784 15.6394 0.48043 15.4425 0.292893C15.2455 0.105357 14.9785 0 14.7 0C14.4215 0 14.1545 0.105357 13.9575 0.292893C13.7606 0.48043 13.65 0.734784 13.65 1V2H7.35V1C7.35 0.734784 7.23937 0.48043 7.04246 0.292893C6.84555 0.105357 6.57848 0 6.3 0C6.02152 0 5.75445 0.105357 5.55754 0.292893C5.36062 0.48043 5.25 0.734784 5.25 1V2H3.15C2.31457 2 1.51335 2.31607 0.922614 2.87868C0.331874 3.44129 0 4.20435 0 5V17C0 17.7956 0.331874 18.5587 0.922614 19.1213C1.51335 19.6839 2.31457 20 3.15 20H17.85C18.6854 20 19.4866 19.6839 20.0774 19.1213C20.6681 18.5587 21 17.7956 21 17V5C21 4.20435 20.6681 3.44129 20.0774 2.87868C19.4866 2.31607 18.6854 2 17.85 2ZM18.9 17C18.9 17.2652 18.7894 17.5196 18.5925 17.7071C18.3955 17.8946 18.1285 18 17.85 18H3.15C2.87152 18 2.60445 17.8946 2.40754 17.7071C2.21062 17.5196 2.1 17.2652 2.1 17V10H18.9V17ZM18.9 8H2.1V5C2.1 4.73478 2.21062 4.48043 2.40754 4.29289C2.60445 4.10536 2.87152 4 3.15 4H5.25V5C5.25 5.26522 5.36062 5.51957 5.55754 5.70711C5.75445 5.89464 6.02152 6 6.3 6C6.57848 6 6.84555 5.89464 7.04246 5.70711C7.23937 5.51957 7.35 5.26522 7.35 5V4H13.65V5C13.65 5.26522 13.7606 5.51957 13.9575 5.70711C14.1545 5.89464 14.4215 6 14.7 6C14.9785 6 15.2455 5.89464 15.4425 5.70711C15.6394 5.51957 15.75 5.26522 15.75 5V4H17.85C18.1285 4 18.3955 4.10536 18.5925 4.29289C18.7894 4.48043 18.9 4.73478 18.9 5V8Z" fill="#5FC882"/>
</svg>
