<svg width="23" height="22" viewBox="0 0 23 22" fill="none" xmlns="http://www.w3.org/2000/svg">
<path d="M22.1158 0.116875C22.2339 0.179626 22.3307 0.264508 22.3977 0.364026C22.4647 0.463544 22.4998 0.574638 22.5 0.6875V11C22.5 11.1373 22.4482 11.2714 22.3513 11.3852C22.2545 11.4989 22.117 11.5869 21.9565 11.638L21.6346 11L21.9565 11.638L21.9513 11.6394L21.941 11.6435L21.9012 11.6559C21.6736 11.7277 21.4445 11.7965 21.214 11.8621C20.7571 11.9928 20.1219 12.1688 19.4019 12.3434C17.9896 12.6899 16.1498 13.0625 14.7115 13.0625C13.2456 13.0625 12.0323 12.6775 10.9765 12.3406L10.9281 12.3269C9.83077 11.9763 8.89615 11.6875 7.78846 11.6875C6.57692 11.6875 4.95346 12.0038 3.57058 12.3434C2.9514 12.4967 2.33788 12.664 1.73077 12.8453V21.3125C1.73077 21.4948 1.63959 21.6697 1.4773 21.7986C1.31501 21.9276 1.0949 22 0.865385 22C0.63587 22 0.415757 21.9276 0.253465 21.7986C0.0911744 21.6697 0 21.4948 0 21.3125V0.6875C0 0.505164 0.0911744 0.330295 0.253465 0.201364C0.415757 0.0724328 0.63587 0 0.865385 0C1.0949 0 1.31501 0.0724328 1.4773 0.201364C1.63959 0.330295 1.73077 0.505164 1.73077 0.6875V1.07525C2.12192 0.966625 2.58923 0.8415 3.09808 0.71775C4.51038 0.374 6.35192 0 7.78846 0C9.24231 0 10.4262 0.380875 11.4594 0.713625L11.5338 0.738375C12.6104 1.0835 13.5485 1.375 14.7115 1.375C15.9231 1.375 17.5465 1.05875 18.9294 0.719125C19.7175 0.523617 20.4963 0.305305 21.2642 0.064625L21.2971 0.055L21.304 0.05225H21.3058L22.1158 0.116875ZM20.7692 1.67887C20.3885 1.78612 19.9385 1.9085 19.4435 2.0295C18.0415 2.376 16.2035 2.74863 14.7115 2.74863C13.1781 2.74863 11.9562 2.35538 10.8987 2.01437L10.8848 2.01025C9.79961 1.66375 8.89442 1.375 7.78846 1.375C6.63058 1.375 5.00885 1.68988 3.60865 2.03225C2.97711 2.18705 2.35092 2.35532 1.73077 2.53688V11.3822C2.11154 11.275 2.56154 11.1526 3.05654 11.0316C4.45846 10.6838 6.29654 10.3125 7.78846 10.3125C9.25442 10.3125 10.4677 10.6975 11.5235 11.0344L11.5719 11.0481C12.6692 11.3987 13.6038 11.6875 14.7115 11.6875C15.8677 11.6875 17.4912 11.3726 18.8913 11.0303C19.5229 10.8754 20.1491 10.7072 20.7692 10.5256V1.68025V1.67887Z" fill="#5FC882"/>
</svg>
