<svg width="20" height="21" viewBox="0 0 20 21" fill="none" xmlns="http://www.w3.org/2000/svg">
<path d="M10.0025 11.716C9.10348 11.716 8.22466 11.5013 7.47717 11.099C6.72967 10.6968 6.14707 10.125 5.80304 9.45614C5.459 8.78723 5.36899 8.05119 5.54437 7.34108C5.71976 6.63097 6.15267 5.97869 6.78837 5.46673C7.42406 4.95477 8.23398 4.60612 9.11571 4.46487C9.99744 4.32362 10.9114 4.39612 11.742 4.67319C12.5725 4.95026 13.2824 5.41946 13.7819 6.02146C14.2813 6.62346 14.5479 7.33123 14.5479 8.05525C14.5465 9.02577 14.0671 9.95621 13.215 10.6425C12.3629 11.3287 11.2076 11.7148 10.0025 11.716ZM10.0025 5.85882C9.46308 5.85882 8.93579 5.98764 8.48729 6.22898C8.0388 6.47033 7.68923 6.81337 7.48281 7.21471C7.27639 7.61606 7.22238 8.05768 7.32762 8.48375C7.43285 8.90981 7.6926 9.30118 8.07401 9.60836C8.45543 9.91553 8.94138 10.1247 9.47042 10.2095C9.99946 10.2942 10.5478 10.2507 11.0462 10.0845C11.5445 9.91824 11.9705 9.63672 12.2701 9.27552C12.5698 8.91432 12.7298 8.48966 12.7298 8.05525C12.729 7.4729 12.4415 6.91456 11.9302 6.50278C11.4189 6.091 10.7256 5.8594 10.0025 5.85882Z" fill="#5FC882"/>
<path d="M10 20.5L2.33092 13.2159C2.22435 13.1065 2.1189 12.9965 2.01455 12.8857C0.704538 11.4959 -0.00316471 9.79843 1.0639e-05 8.05357C1.0639e-05 5.91763 1.05358 3.86917 2.92894 2.35884C4.8043 0.848499 7.34784 0 10 0C12.6522 0 15.1957 0.848499 17.0711 2.35884C18.9464 3.86917 20 5.91763 20 8.05357C20.0032 9.79764 19.2958 11.4944 17.9864 12.8835L17.9854 12.8857C17.9854 12.8857 17.7127 13.1742 17.6718 13.213L10 20.5ZM3.46546 12.0035C3.46728 12.0035 3.67819 12.229 3.72637 12.2773L10 18.2362L16.2818 12.2692C16.3218 12.229 16.5345 12.002 16.5354 12.0013C17.6056 10.8658 18.1839 9.47908 18.1818 8.05357C18.1818 6.30598 17.3198 4.62997 15.7854 3.39424C14.251 2.15851 12.17 1.46429 10 1.46429C7.83005 1.46429 5.74897 2.15851 4.21459 3.39424C2.6802 4.62997 1.81819 6.30598 1.81819 8.05357C1.81628 9.47996 2.39526 10.8675 3.46637 12.0035H3.46546Z" fill="#5FC882"/>
</svg>
