<svg width="20" height="21" viewBox="0 0 20 21" fill="none" xmlns="http://www.w3.org/2000/svg">
<path d="M10 20.5L2.33092 13.2159C2.22435 13.1065 2.1189 12.9965 2.01455 12.8857C0.704538 11.4959 -0.00316471 9.79843 1.0639e-05 8.05357C1.0639e-05 5.91763 1.05358 3.86917 2.92894 2.35884C4.8043 0.848499 7.34784 0 10 0C12.6522 0 15.1957 0.848499 17.0711 2.35884C18.9464 3.86917 20 5.91763 20 8.05357C20.0032 9.79764 19.2958 11.4944 17.9864 12.8835L17.9854 12.8857C17.9854 12.8857 17.7127 13.1742 17.6718 13.213L10 20.5ZM3.46546 12.0035C3.46728 12.0035 3.67819 12.229 3.72637 12.2773L10 18.2362L16.2818 12.2692C16.3218 12.229 16.5345 12.002 16.5354 12.0013C17.6056 10.8658 18.1839 9.47908 18.1818 8.05357C18.1818 6.30598 17.3198 4.62997 15.7854 3.39424C14.251 2.15851 12.17 1.46429 10 1.46429C7.83005 1.46429 5.74897 2.15851 4.21459 3.39424C2.6802 4.62997 1.81819 6.30598 1.81819 8.05357C1.81628 9.47996 2.39526 10.8675 3.46637 12.0035H3.46546Z" fill="#5FC882"/>
</svg>
