<svg width="24" height="21" viewBox="0 0 24 21" fill="none" xmlns="http://www.w3.org/2000/svg">
<path d="M11.5611 10.389C13.0942 10.389 14.5645 9.84172 15.6486 8.86756C16.7327 7.89341 17.3417 6.57217 17.3417 5.1945C17.3417 3.81683 16.7327 2.49559 15.6486 1.52143C14.5645 0.547276 13.0942 0 11.5611 0C10.028 0 8.55772 0.547276 7.47366 1.52143C6.38959 2.49559 5.78057 3.81683 5.78057 5.1945C5.78057 6.57217 6.38959 7.89341 7.47366 8.86756C8.55772 9.84172 10.028 10.389 11.5611 10.389ZM15.4148 5.1945C15.4148 6.11294 15.0088 6.99377 14.2861 7.64321C13.5634 8.29265 12.5832 8.6575 11.5611 8.6575C10.5391 8.6575 9.55886 8.29265 8.83615 7.64321C8.11344 6.99377 7.70742 6.11294 7.70742 5.1945C7.70742 4.27605 8.11344 3.39523 8.83615 2.74579C9.55886 2.09635 10.5391 1.7315 11.5611 1.7315C12.5832 1.7315 13.5634 2.09635 14.2861 2.74579C15.0088 3.39523 15.4148 4.27605 15.4148 5.1945ZM23.1223 19.0465C23.1223 20.778 21.1954 20.778 21.1954 20.778H1.92686C1.92686 20.778 0 20.778 0 19.0465C0 17.315 1.92686 12.1205 11.5611 12.1205C21.1954 12.1205 23.1223 17.315 23.1223 19.0465ZM21.1954 19.0396C21.1935 18.6136 20.8987 17.3323 19.5923 16.1584C18.336 15.0294 15.9717 13.852 11.5611 13.852C7.14864 13.852 4.78631 15.0294 3.53 16.1584C2.22359 17.3323 1.93071 18.6136 1.92686 19.0396H21.1954Z" fill="#5FC882"/>
</svg>
